<svg xmlns="http://www.w3.org/2000/svg" viewBox="0 0 338.11 438.63"><title>css</title><g id="Layer_2" data-name="Layer 2"><g id="Layer_1-2" data-name="Layer 1"><path d="M233.17,283.34l-.25-.94c1.39-.72,2.73-1.53,4.16-2.16,65.45-28.6,107-97.42,100.33-169.2-3-32.66-14.54-61.82-34-88.11C292.27,7.85,277.21.31,259,.2,199-.16,139,.07,79,.08a31.26,31.26,0,0,0-4,.18C62.18,1.94,49.72,5.6,41.24,15.59,7.2,55.71-6.42,102.29,2.82,154c10.53,59,44.28,101,98.7,126.32,1.37.63,2.67,1.41,4,2.12-11.45.86-22.59.81-33.73.87a67.21,67.21,0,0,0-65,49.52c-3.57,12.75-2.39,25.79-2.39,38.74,0,36.11,28.45,65.87,64.53,66.66,29.15.65,58.32.23,87.48.22,37.83,0,75.66.32,113.48-.24,27.81-.41,51.84-19.18,60.49-45.63,5-15.44,3.74-31.33,2.95-47.06-1.1-21.5-11.47-38.22-28.94-50.52-11.36-8-24.25-11.46-38-11.67C255.33,283.21,244.25,283.34,233.17,283.34Z" style="fill:#fff"/><path d="M233.17,283.34c11.08,0,22.16-.13,33.23,0,13.77.21,26.66,3.68,38,11.67,17.47,12.3,27.84,29,28.94,50.52.79,15.73,2.1,31.62-2.95,47.06-8.65,26.45-32.68,45.22-60.49,45.63-37.82.56-75.65.24-113.48.24-29.16,0-58.33.43-87.48-.22-36.08-.79-64.55-30.55-64.53-66.66,0-12.95-1.18-26,2.39-38.74a67.21,67.21,0,0,1,65-49.52c11.14-.06,22.28,0,33.73-.87-1.33-.71-2.63-1.49-4-2.12C47.1,255.06,13.35,213,2.82,154-6.42,102.29,7.2,55.71,41.24,15.59,49.72,5.6,62.18,1.94,75,.26a31.26,31.26,0,0,1,4-.18c60,0,120-.24,180,.12,18.24.11,33.3,7.65,44.45,22.73,19.45,26.29,30.95,55.45,34,88.11,6.67,71.78-34.88,140.6-100.33,169.2-1.43.63-2.77,1.44-4.16,2.16ZM169.92,12.56c-27.16,0-54.33-.3-81.48.1C70.76,12.93,55,18.37,44.08,33.41,17.52,70.1,8.18,110.93,16.54,155.34,32.55,240.4,117.16,295.85,202,277.41,310,254,359.78,128.1,297.22,37.42c-11.73-17-27.71-24.73-47.82-24.83C222.9,12.46,196.41,12.56,169.92,12.56Zm-.7,411.66c32.67,0,65.33.08,98,0,25.06-.08,47.5-18.83,51-43.44,1.44-10.14,1.08-20.58,1.06-30.88-.05-28.13-23.28-51.62-51.44-51.68q-98.74-.24-197.49,0a51.34,51.34,0,0,0-48.07,34.28C16.73,348.31,17.7,365,20.2,380.88c4.18,26.59,26.05,43.33,53,43.34Z"/><path d="M169.92,12.56c26.49,0,53-.1,79.48,0,20.11.1,36.09,7.82,47.82,24.83C359.78,128.1,310,254,202,277.41c-84.86,18.44-169.47-37-185.48-122.07-8.36-44.41,1-85.24,27.54-121.93,10.9-15,26.68-20.48,44.36-20.75C115.59,12.26,142.76,12.56,169.92,12.56Zm-.82,162.65c20.68,0,36.68-16,36.54-36.6a36,36,0,0,0-36.47-36.22,36.41,36.41,0,1,0-.07,72.82Zm-91,0c20.55,0,37.08-16.32,36.9-36.51a36.73,36.73,0,1,0-36.9,36.51Zm182,0c20.51,0,36.33-15.65,36.48-36.12a36.53,36.53,0,1,0-36.48,36.12ZM250.14,221a35.46,35.46,0,0,0-35.89-35.6A36.05,36.05,0,0,0,178.55,221c-.19,19.36,16.4,36,35.89,36A35.87,35.87,0,0,0,250.14,221Zm-90.77,0c-.07-20.1-15.68-35.59-35.82-35.55-19.91,0-35.44,15.91-35.27,36.07a35.55,35.55,0,1,0,71.09-.52Zm81-149c.24-14.47-10.73-26.27-24.72-26.59-14.89-.33-26.95,10.86-27.16,25.23-.23,15,10.72,26.47,25.57,26.72S240.12,86.72,240.36,72ZM123.82,97.42A26,26,0,1,0,97.55,71.58,26.24,26.24,0,0,0,123.82,97.42Z" style="fill:#fff"/><path d="M169.22,424.22h-96c-27,0-48.85-16.75-53-43.34-2.5-15.9-3.47-32.57,2.09-48.41a51.34,51.34,0,0,1,48.07-34.28q98.75-.18,197.49,0c28.16.06,51.39,23.55,51.44,51.68,0,10.3.38,20.74-1.06,30.88-3.51,24.61-26,43.36-51,43.44C234.55,424.3,201.89,424.22,169.22,424.22Zm63.06-24a41.4,41.4,0,1,0,.08-82.8c-22.91,0-41.92,18.5-41.63,41.45C191.05,384.53,211.81,401,232.28,400.24Zm-90-41.07c.07-23.21-18.11-41.68-41.1-41.73a41.4,41.4,0,1,0-.43,82.8C124.22,400.35,142.24,382.53,142.32,359.17Z" style="fill:#fff"/><path d="M169.1,175.21a36.41,36.41,0,1,1,36.54-36.6C205.78,159.19,189.78,175.22,169.1,175.21Zm23.42-36.27a23.66,23.66,0,0,0-23.26-23.77c-12.59-.11-23.56,10.79-23.71,23.54-.14,12.55,10.85,23.64,23.48,23.7A23.48,23.48,0,0,0,192.52,138.94Z"/><path d="M78.08,175.2A36.41,36.41,0,1,1,115,138.69C115.16,158.88,98.63,175.24,78.08,175.2Zm23.46-36.31a23.58,23.58,0,0,0-23.28-23.72c-12.65,0-23.59,10.91-23.62,23.59a24,24,0,0,0,23.5,23.65A23.44,23.44,0,0,0,101.54,138.89Z"/><path d="M260.07,175.21a36.41,36.41,0,1,1,36.48-36.12C296.4,159.56,280.58,175.22,260.07,175.21Zm23.43-36.59a23.76,23.76,0,0,0-23.62-23.45c-12.56.14-23.63,11.41-23.42,23.86.22,12.71,11.19,23.47,23.84,23.38A23.61,23.61,0,0,0,283.5,138.62Z"/><path d="M250.14,221a35.87,35.87,0,0,1-35.7,36c-19.49,0-36.08-16.68-35.89-36a36.05,36.05,0,0,1,35.7-35.52A35.46,35.46,0,0,1,250.14,221Zm-35.8,22.52a22.93,22.93,0,0,0,23-22.17c.24-12-10.75-23.09-22.92-23a22.77,22.77,0,0,0-22.34,22.73C192.07,233.85,201.66,243.53,214.34,243.56Z"/><path d="M159.37,221a35.55,35.55,0,1,1-71.09.52c-.17-20.16,15.36-36,35.27-36.07C143.69,185.4,159.3,200.89,159.37,221Zm-35.5,22.69a22.75,22.75,0,0,0,22.62-22.5A23.18,23.18,0,0,0,124,198.34c-12.25-.19-23,10.53-22.88,22.93A22.8,22.8,0,0,0,123.87,243.68Z"/><path d="M240.36,72c-.24,14.69-11.59,25.62-26.31,25.36s-25.8-11.69-25.57-26.72c.21-14.37,12.27-25.56,27.16-25.23C229.63,45.76,240.6,57.56,240.36,72Zm-25.77-19a18.15,18.15,0,0,0-18.5,18.09c-.07,10.36,8.22,19,18.3,19.09,9.81.08,18.94-9.09,18.8-18.88A18.9,18.9,0,0,0,214.59,53.05Z"/><path d="M123.82,97.42a26,26,0,1,1,26.25-25.84A26.24,26.24,0,0,1,123.82,97.42Zm.12-44.37a18.66,18.66,0,0,0-18.78,18.57c.08,9.74,8.8,18.5,18.54,18.61s18.84-9,18.76-18.87A18.64,18.64,0,0,0,123.94,53.05Z"/><path d="M232.28,400.24c-20.47.76-41.23-15.71-41.55-41.35-.29-22.95,18.72-41.44,41.63-41.45a41.4,41.4,0,1,1-.08,82.8Zm29.2-41A29,29,0,0,0,232.93,330c-16.69-.07-29.8,12.66-29.8,29,0,15.8,13.63,29.42,29.33,29.29S261.41,374.77,261.48,359.2Z"/><path d="M142.32,359.17c-.08,23.36-18.1,41.18-41.53,41.07a41.4,41.4,0,1,1,.43-82.8C124.21,317.49,142.39,336,142.32,359.17Zm-41-29.14c-16.27,0-29.18,12.42-29.25,28.25-.08,16.47,12.91,30,28.9,30,15.53.05,29.42-13.86,29.37-29.39S117.06,330.06,101.34,330Z"/><path d="M192.52,138.94A23.48,23.48,0,0,1,169,162.41c-12.63-.06-23.62-11.15-23.48-23.7.15-12.75,11.12-23.65,23.71-23.54A23.66,23.66,0,0,1,192.52,138.94Z" style="fill:#fff"/><path d="M101.54,138.89a23.44,23.44,0,0,1-23.4,23.52,24,24,0,0,1-23.5-23.65c0-12.68,11-23.62,23.62-23.59A23.58,23.58,0,0,1,101.54,138.89Z" style="fill:#fff"/><path d="M283.5,138.62a23.61,23.61,0,0,1-23.2,23.79c-12.65.09-23.62-10.67-23.84-23.38-.21-12.45,10.86-23.72,23.42-23.86A23.76,23.76,0,0,1,283.5,138.62Z" style="fill:#fff"/><path d="M214.34,243.56c-12.68,0-22.27-9.71-22.28-22.48a22.77,22.77,0,0,1,22.34-22.73c12.17,0,23.16,11,22.92,23A22.93,22.93,0,0,1,214.34,243.56Z" style="fill:#fff"/><path d="M123.87,243.68a22.8,22.8,0,0,1-22.74-22.41c-.08-12.4,10.63-23.12,22.88-22.93a23.18,23.18,0,0,1,22.48,22.84A22.75,22.75,0,0,1,123.87,243.68Z" style="fill:#fff"/><path d="M214.59,53.05a18.9,18.9,0,0,1,18.6,18.3c.14,9.79-9,19-18.8,18.88-10.08-.08-18.37-8.73-18.3-19.09A18.15,18.15,0,0,1,214.59,53.05Z" style="fill:#fff"/><path d="M123.94,53.05a18.64,18.64,0,0,1,18.52,18.31c.08,9.91-9,19-18.76,18.87s-18.46-8.87-18.54-18.61A18.66,18.66,0,0,1,123.94,53.05Z" style="fill:#fff"/><path d="M261.48,359.2c-.07,15.57-13.42,28.95-29,29.07S203.13,374.78,203.13,359c0-16.3,13.11-29,29.8-29A29,29,0,0,1,261.48,359.2Z" style="fill:#fff"/><path d="M101.34,330c15.72,0,29,13.22,29,28.86S116.52,388.33,101,388.28c-16,0-29-13.53-28.9-30C72.16,342.45,85.07,330,101.34,330Z" style="fill:#fff"/></g></g></svg>