<svg xmlns="http://www.w3.org/2000/svg" viewBox="0 0 237.57 237.43"><title>chademo</title><g id="Layer_2" data-name="Layer 2"><g id="Layer_1-2" data-name="Layer 1"><path d="M118.53,237.43c64.82,0,117.57-52.26,119-115.33C239.05,56.26,186.05-.21,118.69,0A118.68,118.68,0,0,0,0,118.2C-.56,183.21,52.76,237.87,118.53,237.43Z" style="fill:#fff"/><path d="M118.53,237.43C52.76,237.87-.56,183.21,0,118.2A118.68,118.68,0,0,1,118.69,0c67.36-.21,120.36,56.26,118.85,122.1C236.1,185.17,183.35,237.47,118.53,237.43ZM16.14,118.53c0,56.61,46,102.83,102.36,102.88S221.39,175.26,221.4,119c0-56.45-46-102.73-102.45-102.92S16.14,62.22,16.14,118.53Z"/><path d="M16.14,118.53C16.14,62.22,62.66,15.86,119,16.05S221.42,62.52,221.4,119c0,56.29-46.42,102.49-102.9,102.44S16.13,175.14,16.14,118.53ZM118.25,207c47.77.84,88.63-38.05,88.85-87.52.23-49-38.94-89.06-86.86-89.1-50.38,0-89.77,38.59-89.83,88.12C30.34,167.62,69.44,207,118.25,207Z" style="fill:#fff"/><path d="M118.25,207c-48.81,0-87.91-39.41-87.84-88.5C30.47,69,69.86,30.37,120.24,30.41c47.92,0,87.09,40.07,86.86,89.1C206.88,169,166,207.87,118.25,207Zm73.32-89.56A23.22,23.22,0,0,0,168.64,94c-12.5,0-23.41,10.79-23.38,23.22,0,12.27,10.64,23,22.92,23.14A23.14,23.14,0,0,0,191.57,117.47ZM45.81,117.4a23.14,23.14,0,0,0,46.27-.07C92.17,104.81,81.45,94,68.88,94A23.45,23.45,0,0,0,45.81,117.4Zm95.76,51.42A22.91,22.91,0,0,0,118.67,146a23.22,23.22,0,0,0-23,22.88c-.13,12.32,10.4,23,22.81,23.07A22.92,22.92,0,0,0,141.57,168.82Zm0-100.52a23.07,23.07,0,0,0-22.95-22.82,23.4,23.4,0,0,0-22.93,23c-.1,12.54,10.62,23,23.4,22.94A22.76,22.76,0,0,0,141.57,68.3Z"/><path d="M191.57,117.47a23.14,23.14,0,0,1-23.39,22.93c-12.28-.16-22.89-10.87-22.92-23.14,0-12.43,10.88-23.26,23.38-23.22A23.22,23.22,0,0,1,191.57,117.47Z" style="fill:#fff"/><path d="M45.81,117.4A23.45,23.45,0,0,1,68.88,94c12.57,0,23.29,10.77,23.2,23.29a23.14,23.14,0,0,1-46.27.07Z" style="fill:#fff"/><path d="M141.57,168.82a22.92,22.92,0,0,1-23,23.17c-12.41-.1-22.94-10.75-22.81-23.07a23.22,23.22,0,0,1,23-22.88A22.91,22.91,0,0,1,141.57,168.82Zm-30.42-13.38,7.22,7.57,8.17-7.37A14.49,14.49,0,0,0,111.15,155.44ZM113,169.07l-7.31-7.86c-3.27,5.64-3.1,11.24.09,15.07Zm11.58.47c1,1.08,2.22,2.4,3.49,3.67s2.51,2.39,3.87,3.67c3.18-6,3.13-10.29-.22-15.73Zm1.4,13.88.32-1.74-6.34-6.38-8.72,6.75.44,1.37Z" style="fill:#fff"/><path d="M141.57,68.3a22.76,22.76,0,0,1-22.48,23.14c-12.78.1-23.5-10.4-23.4-22.94a23.4,23.4,0,0,1,22.93-23A23.07,23.07,0,0,1,141.57,68.3Zm-31,13.63c5.79,2.8,10.77,3,15.78.07l-6.73-7.32Zm1.9-12.9-7.3-8.69c-2.28,5.72-2.76,10.59.28,16.17C108.19,73.58,110.6,71,112.47,69Zm19.58,7.45C135,71,135,66.09,132.44,61.22L124.6,68Zm-5.21-21.31c-5.72-2.75-10.54-2.72-15.33-.4l6.69,7.68C121.14,60,123.76,57.76,126.84,55.17Z" style="fill:#fff"/><path d="M111.15,155.44a14.49,14.49,0,0,1,15.39.2L118.37,163Z"/><path d="M113,169.07l-7.22,7.21c-3.19-3.83-3.36-9.43-.09-15.07Z"/><path d="M124.54,169.54l7.14-8.39c3.35,5.44,3.4,9.73.22,15.73-1.36-1.28-2.65-2.44-3.87-3.67S125.56,170.62,124.54,169.54Z"/><path d="M125.94,183.42h-14.3l-.44-1.37,8.72-6.75,6.34,6.38Z"/><path d="M110.57,81.93l9.05-7.25L126.35,82C121.34,84.9,116.36,84.73,110.57,81.93Z"/><path d="M112.47,69c-1.87,2-4.28,4.55-7,7.48-3-5.58-2.56-10.45-.28-16.17Z"/><path d="M132.05,76.48,124.6,68l7.84-6.79C135,66.09,135,71,132.05,76.48Z"/><path d="M126.84,55.17c-3.08,2.59-5.7,4.79-8.64,7.28l-6.69-7.68C116.3,52.45,121.12,52.42,126.84,55.17Z"/></g></g></svg>