<svg xmlns="http://www.w3.org/2000/svg" viewBox="0 0 60 93.06"><title>marker_cu</title><g id="Layer_2" data-name="Layer 2"><g id="Layer_1-2" data-name="Layer 1"><path d="M59.43,24.89a33.21,33.21,0,0,0-2.52-8.38A27,27,0,0,0,44.52,3.45,31.56,31.56,0,0,0,30,0a34.42,34.42,0,0,0-6.15.58A30.59,30.59,0,0,0,16,3.21a27,27,0,0,0-10,8.4A30.87,30.87,0,0,0,.53,25.05,44.73,44.73,0,0,0,0,29.83a22.21,22.21,0,0,0,.51,6.4,59.89,59.89,0,0,0,2.62,8,161,161,0,0,0,7,14.95c6,11.54,12.69,22.69,19.69,33.65.17.26.17.26.35,0C35.61,84.37,40.81,75.76,45.69,67c3.37-6.07,6.59-12.21,9.39-18.56a75.37,75.37,0,0,0,4.06-11A21.45,21.45,0,0,0,60,30.81,49,49,0,0,0,59.43,24.89ZM30.66,20.34c-.19,0-.38,0-.57,0h.08C30.34,20.31,30.5,20.33,30.66,20.34Zm3.51.83h0Zm-.77-.29-.23-.08Zm-.83-.24-.4-.11Zm-.91-.19-.52-.08Zm-7.77,1.86-.34.26Zm5.7-2-.53,0Zm-1.11.1-.43.07Zm-1.05.21-.35.09Zm-1,.31-.3.11Zm-.91.38-.3.15Zm-.85.46-.32.19ZM23.16,22.9c-.13.11-.26.22-.38.34C22.9,23.12,23,23,23.16,22.9Zm-3.5,7a5.25,5.25,0,0,0,0,.56,2.26,2.26,0,0,1,0-.26C19.63,30.08,19.65,30,19.66,29.88Zm2.82-6.33c-.13.14-.27.28-.39.43C22.21,23.83,22.35,23.69,22.48,23.55Zm-.62.71a6.55,6.55,0,0,0-.39.53A6.55,6.55,0,0,1,21.86,24.26ZM21.3,25c-.13.2-.25.4-.37.61C21.05,25.44,21.17,25.24,21.3,25Zm-.5.85c-.11.21-.22.43-.32.66C20.58,26.32,20.69,26.1,20.8,25.89Zm-.42.91c-.09.22-.17.45-.25.68C20.21,27.25,20.29,27,20.38,26.8Zm-.34,1c-.06.22-.12.44-.17.66C19.92,28.22,20,28,20,27.78Zm-.24,1c0,.2-.07.41-.1.62C19.73,29.22,19.76,29,19.8,28.81Zm2.3,8.63c.15.18.31.35.47.52C22.41,37.79,22.25,37.62,22.1,37.44ZM19.63,31a4.89,4.89,0,0,0,0,.54A4.89,4.89,0,0,1,19.63,31ZM19.71,32a5.43,5.43,0,0,0,.09.56A5.43,5.43,0,0,1,19.71,32Zm.18,1a6,6,0,0,0,.15.61A6,6,0,0,1,19.89,33Zm.26,1c.07.21.15.43.24.64C20.3,34.42,20.22,34.2,20.15,34Zm.36.92c.09.22.2.44.31.65C20.71,35.35,20.6,35.13,20.51,34.91Zm.44.88c.12.22.25.43.39.64C21.2,36.22,21.07,36,21,35.79Zm.53.85c.14.2.29.4.44.59C21.77,37,21.62,36.84,21.48,36.64Zm7.76,4.42.47,0a1.62,1.62,0,0,0-.22,0ZM22.8,38.18c.16.16.32.3.49.45C23.12,38.48,23,38.34,22.8,38.18Zm.77.68.49.36Zm.83.59.5.3Zm.89.51.5.24Zm.92.41.51.19Zm1,.33.53.13Zm1,.23.52.08Zm8.93-2.64.07-.06Zm-6.74,2.79.39,0Zm1.11-.1.31,0Zm1.08-.21.23-.06Zm1-.31.17-.07Zm1-.42.13-.06Zm.91-.5.1-.06Zm.85-.59.08-.06Zm4.08-8c0-.09,0-.17,0-.26v0C40.41,30.82,40.4,30.9,40.4,31Zm-2.58,6.57.06-.06Zm.64-.8,0-.07Zm.56-.87,0-.06ZM39.5,35a.14.14,0,0,0,0-.06A.14.14,0,0,1,39.5,35Zm.38-1s0,0,0,0S39.89,34,39.88,34Zm.28-1v0Zm.17-1a.64.64,0,0,0,0-.07A.64.64,0,0,1,40.33,31.9Zm0-2.23a.86.86,0,0,0,0,.16A.86.86,0,0,1,40.36,29.67Z" style="fill:#e65100"/><path id="_-Icon-Color" data-name="-Icon-Color" d="M42.88,25.68h0L36.52,19.3l-1.81,1.81,3.61,3.62A4.27,4.27,0,0,0,39.85,33a4.43,4.43,0,0,0,1.71-.36V45a1.72,1.72,0,0,1-3.43,0v-7.7a3.43,3.43,0,0,0-3.42-3.43H33v-12a3.44,3.44,0,0,0-3.43-3.43H19.3a3.44,3.44,0,0,0-3.43,3.43V49.26H33V36.42h2.56V45a4.29,4.29,0,0,0,8.57,0V28.72A4.29,4.29,0,0,0,42.88,25.68ZM29.57,32.14v13.7H19.3v-24H29.57Zm10.28-1.71a1.72,1.72,0,1,1,1.71-1.71A1.72,1.72,0,0,1,39.85,30.43Zm-13.7-6.85L19.3,36.42h3.42v7.71l6.85-12H26.15Z" style="fill:#fff"/></g></g></svg>