<svg xmlns="http://www.w3.org/2000/svg" viewBox="0 0 139.61 372.8"><title>marker_dash_line</title><g id="Layer_2" data-name="Layer 2"><g id="Layer_1-2" data-name="Layer 1"><path d="M31,13a17.08,17.08,0,0,0-1.31-4.37,14.06,14.06,0,0,0-4.94-5.91A15.64,15.64,0,0,0,17.55.11a16.77,16.77,0,0,0-4.42.08A16,16,0,0,0,8.75,1.48a14.14,14.14,0,0,0-7.4,7.76A19.63,19.63,0,0,0,0,16.41a9.58,9.58,0,0,0,.3,2.51A29.55,29.55,0,0,0,1.67,23.1,79.81,79.81,0,0,0,5.3,30.89c3.14,6,6.62,11.85,10.27,17.56.1.15.1.15.2,0Q20,41.83,23.84,35c1.77-3.18,3.45-6.39,4.92-9.71a39.19,39.19,0,0,0,2.11-5.75,11,11,0,0,0,.45-3A22.75,22.75,0,0,0,31,13ZM15.68,21.44A5.42,5.42,0,1,1,21.1,16,5.41,5.41,0,0,1,15.68,21.44Z" style="fill:#e65100"/><path d="M139.32,337.23a17.49,17.49,0,0,0-1.31-4.37,14.08,14.08,0,0,0-4.95-5.91,15.6,15.6,0,0,0-7.22-2.6,16.78,16.78,0,0,0-4.42.08,16,16,0,0,0-4.38,1.29,14.18,14.18,0,0,0-7.4,7.76,19.63,19.63,0,0,0-1.34,7.17,9.58,9.58,0,0,0,.3,2.51,29.55,29.55,0,0,0,1.36,4.18,82.22,82.22,0,0,0,3.63,7.79c3.14,6,6.62,11.85,10.28,17.56.09.15.09.15.19,0q4.25-6.62,8.08-13.47c1.76-3.18,3.44-6.39,4.91-9.71a39.24,39.24,0,0,0,2.12-5.75,11,11,0,0,0,.44-3A24.07,24.07,0,0,0,139.32,337.23ZM124,345.68a5.42,5.42,0,1,1,5.42-5.42A5.41,5.41,0,0,1,124,345.68Z" style="fill:#e65100"/><path d="M15.57,48.45s-9,19.28,5.53,45S68.68,168.7,68.68,168.7s50.29,49.52,51.83,79.47,4.58,52.59,3.44,66.41" style="fill:none;stroke:#fffefd;stroke-miterlimit:10;stroke-width:2px;stroke-dasharray:12"/></g></g></svg>