<svg xmlns="http://www.w3.org/2000/svg" viewBox="0 0 60 93.06"><title>marker</title><g id="Layer_2" data-name="Layer 2"><g id="Layer_1-2" data-name="Layer 1"><path d="M60,30.81a49,49,0,0,0-.55-5.92,33.21,33.21,0,0,0-2.52-8.38A27,27,0,0,0,44.52,3.45,31.56,31.56,0,0,0,30,0a34.42,34.42,0,0,0-6.15.58A30.59,30.59,0,0,0,16,3.21a27,27,0,0,0-10,8.4A30.87,30.87,0,0,0,.53,25.05,44.73,44.73,0,0,0,0,29.83a22.21,22.21,0,0,0,.51,6.4,59.89,59.89,0,0,0,2.62,8,161,161,0,0,0,7,14.95c6,11.54,12.69,22.69,19.69,33.65.17.26.17.26.35,0C35.61,84.37,40.81,75.76,45.69,67c3.37-6.07,6.59-12.21,9.39-18.56a75.37,75.37,0,0,0,4.06-11A21.45,21.45,0,0,0,60,30.81ZM29.49,41.09A10.4,10.4,0,1,1,40.41,30.74,10.39,10.39,0,0,1,29.49,41.09Z" style="fill:#e65100"/></g></g></svg>