<svg xmlns="http://www.w3.org/2000/svg" viewBox="0 0 207 244"><title>type1</title><g id="Layer_2" data-name="Layer 2"><g id="Layer_1-2" data-name="Layer 1"><path d="M0,133V118a19.49,19.49,0,0,0,.82-2.84C5.42,81.37,21.6,54.94,50.68,36.75c5.17-3.23,12.17-4.86,15.49-9.33s3.38-11.61,4.52-17.64C71.56,5.2,73.57,1.77,78,0h5c.15,2.09.29,4.18.43,6.21h37.25L122,0h1c7.11.61,10.36,4.79,11.27,11.6.52,3.92,2.13,7.69,2.62,11.61.43,3.48,2.16,5,5.21,6.32,29,12.7,49.6,33.36,59.33,63.86,2.54,8,3.75,16.39,5.57,24.61v16c-1.19,5.84-2.05,11.76-3.63,17.49-8.38,30.42-27.46,51.95-55.72,65.32-7.25,3.43-11.63,6.94-10.47,16.05.9,7.06-3,10-10.26,10.45-1.65.1-3.28.45-4.92.69H79c-6.61-2-10-6.19-9.23-13.29,0-.49-.09-1,0-1.49.69-5.3-1.46-8.26-6.52-10.51-25.31-11.28-44.3-29.2-54.47-55.29C4.94,153.63,2.87,143.16,0,133Zm103.41,94.07V227h7c12.28,0,12.82.92,12.77-12,0-2.49.71-3.72,3.15-4.76,7.48-3.17,15-6.27,22.09-10.26A86.5,86.5,0,0,0,188,98.2c-11.44-35.69-46.14-62.49-83.57-62.6C74.15,35.51,49.73,49,32,73.38c-13.85,19.1-20.81,40.76-16.33,64.45,6.45,34,26.71,57.38,58.69,70.2,6.82,2.73,10.33,5.92,9.51,13.46-.42,3.88,2.19,5.62,6,5.59C94.41,227,98.91,227.07,103.41,227.07ZM120.76,10.9H83.69V22h37.07Z"/><path d="M122,0l-1.32,6.21H83.43c-.14-2-.28-4.12-.43-6.21Z" style="fill:#fff"/><path d="M103.41,227.07c-4.5,0-9,0-13.5,0-3.81,0-6.42-1.71-6-5.59.82-7.54-2.69-10.73-9.51-13.46-32-12.82-52.24-36.16-58.69-70.2C11.23,114.14,18.19,92.48,32,73.38,49.73,49,74.15,35.51,104.4,35.6c37.43.11,72.13,26.91,83.57,62.6A86.5,86.5,0,0,1,148.42,200c-7,4-14.61,7.09-22.09,10.26-2.44,1-3.16,2.27-3.15,4.76,0,12.93-.49,12-12.77,12h-7ZM34.58,123.85c-.34,38,29.89,69,67.65,69.43,38.25.42,69.11-30,69.7-68.59.56-37.33-30.31-69.42-67.11-69.74C65.61,54.61,34.92,84.71,34.58,123.85Z" style="fill:#fff"/><path d="M120.76,10.9V22H83.69v-11Z" style="fill:#fff"/><path d="M34.58,123.85c.34-39.14,31-69.24,70.24-68.9,36.8.32,67.67,32.41,67.11,69.74-.59,38.63-31.45,69-69.7,68.59C64.47,192.88,34.24,161.85,34.58,123.85Zm123.36-27c0-12.52-10.74-22.86-23.59-22.76-12.61.1-23.13,10.36-23.25,22.65s10.68,23.06,23.39,23.09S158,109.32,157.94,96.82Zm-78,69.46A22.9,22.9,0,0,0,102.85,189c12.91.09,23.63-10.09,23.78-22.6.16-12.3-10.71-23-23.42-23.07A23,23,0,0,0,79.91,166.28ZM73.1,119c13,0,23.28-10.25,23.13-23a23.32,23.32,0,0,0-46.62.3C49.59,109,60,119,73.1,119ZM129,145.68a16.61,16.61,0,1,0,16.87-16.62A16.57,16.57,0,0,0,129,145.68Zm-68-15.74a16.15,16.15,0,1,0,16,16.37A16.3,16.3,0,0,0,60.94,129.94Z"/><path d="M157.94,96.82c0,12.5-10.71,23-23.45,23S111,109.11,111.1,96.71s10.64-22.55,23.25-22.65C147.2,74,157.91,84.3,157.94,96.82Zm-16.52-.63a7,7,0,0,0-7.2-7.18A7.32,7.32,0,0,0,127,96.26a7.16,7.16,0,0,0,7,6.83A6.8,6.8,0,0,0,141.42,96.19Z" style="fill:#fff"/><path d="M79.91,166.28a23,23,0,0,1,23.3-23c12.71.07,23.58,10.77,23.42,23.07-.15,12.51-10.87,22.69-23.78,22.6A22.9,22.9,0,0,1,79.91,166.28Zm30.54-.63a6.88,6.88,0,0,0-7-7,7.08,7.08,0,0,0-7.49,7,7.33,7.33,0,0,0,7,7.1A7.24,7.24,0,0,0,110.45,165.65Z" style="fill:#fff"/><path d="M73.1,119C60,119,49.59,109,49.61,96.33A23.32,23.32,0,0,1,96.23,96C96.38,108.75,86.1,119,73.1,119Zm7.14-23.2a6.76,6.76,0,0,0-7.46-6.88A7,7,0,0,0,66,96a7.23,7.23,0,0,0,7.54,7A7,7,0,0,0,80.24,95.8Z" style="fill:#fff"/><path d="M129,145.68a16.61,16.61,0,1,1,33.22.55,16.61,16.61,0,1,1-33.22-.55Zm16.72,6.53c2.07-3,4.25-4.81,4.07-6.3s-2.6-3-4.05-4.47c-1.45,1.48-3.85,2.83-4.08,4.48C141.41,147.39,143.61,149.2,145.68,152.21Z" style="fill:#fff"/><path d="M60.94,129.94a16.15,16.15,0,1,1-.49,32.3,16.16,16.16,0,1,1,.49-32.3Zm5.94,17c-2.82-2.21-4.55-4.6-6-4.46-1.64.16-4.11,2.56-4.25,4.15-.11,1.37,2.4,3.93,4,4.19S64,148.85,66.88,146.92Z" style="fill:#fff"/><path d="M141.42,96.19a6.8,6.8,0,0,1-7.36,6.9,7.16,7.16,0,0,1-7-6.83A7.32,7.32,0,0,1,134.22,89,7,7,0,0,1,141.42,96.19Z"/><path d="M110.45,165.65a7.24,7.24,0,0,1-7.42,7.14,7.33,7.33,0,0,1-7-7.1,7.08,7.08,0,0,1,7.49-7A6.88,6.88,0,0,1,110.45,165.65Z"/><path d="M80.24,95.8a7,7,0,0,1-6.75,7.2A7.23,7.23,0,0,1,66,96a7,7,0,0,1,6.83-7.1A6.76,6.76,0,0,1,80.24,95.8Z"/><path d="M145.68,152.21c-2.07-3-4.27-4.82-4.06-6.29.23-1.65,2.63-3,4.08-4.48,1.45,1.48,3.84,2.84,4.05,4.47S147.75,149.19,145.68,152.21Z"/><path d="M66.88,146.92C64,148.85,62.1,151,60.62,150.8s-4.14-2.82-4-4.19c.14-1.59,2.61-4,4.25-4.15C62.33,142.32,64.06,144.71,66.88,146.92Z"/></g></g></svg>