<svg xmlns="http://www.w3.org/2000/svg" viewBox="0 0 236 214"><title>type2</title><g id="Layer_2" data-name="Layer 2"><g id="Layer_1-2" data-name="Layer 1"><circle cx="120.79" cy="106.5" r="106.5" style="fill:#fff"/><path d="M236,88v17c-.29,1.43-.66,2.86-.84,4.3-6,48.16-33.87,79.26-77.31,97.55-9,3.8-19.2,4.84-28.85,7.15H115c-10.18-2.19-20.59-3.63-30.5-6.7-44.89-14-70.62-45.66-82-90.18C1.2,112.2.8,107.05,0,102V84c.45-2.74.84-5.49,1.37-8.21C8,42.16,25.55,16.45,56,0H181c10.49,5.61,19.85,12.73,27.19,22.1,11.14,14.23,19.61,29.91,24,47.55C233.74,75.7,234.75,81.88,236,88ZM119,22.21c-16.49,0-33,.31-49.47-.15A22.37,22.37,0,0,0,53.3,28c-23,20.1-34.46,45.17-30.18,75.79,5.37,38.41,25.67,65.93,62.27,80.49,15.75,6.27,32.12,9.37,48.88,6.36,43.45-7.83,77.81-48.42,79.15-85.82,1.15-32.43-9.79-59.17-34.82-79.89a13.82,13.82,0,0,0-8.11-2.64C153.33,22.09,136.17,22.21,119,22.21Z"/><path d="M148.12,117.8c-14-.07-25.07,10.51-25.2,24.07a25.05,25.05,0,1,0,25.2-24.07ZM63,142.08A24.78,24.78,0,0,0,88,167c13.75,0,25-11,25.06-24.42.08-13.9-10.92-24.77-25-24.78C74.05,117.79,63,128.5,63,142.08Zm30-49.16A25,25,0,0,0,143,92.78c0-13.43-11.23-24.54-24.88-24.71A24.94,24.94,0,0,0,92.94,92.92Zm-58.12-.11c0,13.74,10.73,24.49,24.65,24.64s25.47-11,25.52-24.54c.05-13.4-11.81-25-25.42-24.84A24.8,24.8,0,0,0,34.82,92.81Zm165.36.39a24.78,24.78,0,0,0-24.86-25.12c-13.48,0-25,11.07-25.3,24.44s11.17,24.83,25.12,24.93A24.5,24.5,0,0,0,200.18,93.2ZM90,73.08A19.86,19.86,0,0,0,110.1,52.85c0-11.38-8.8-20.64-19.78-20.77C79.56,32,70.16,41.44,70,52.54A20.32,20.32,0,0,0,90,73.08Zm77.31-20.33c0-11.51-8.85-20.72-19.9-20.67s-20,9.45-20,20.76a20.09,20.09,0,0,0,19.78,20.24C158.63,73.15,167.31,64.35,167.33,52.75Z" style="fill:#fff"/><path d="M148.12,117.8A24.64,24.64,0,0,1,173,142.27a25,25,0,0,1-50.08-.4C123.05,128.31,134.13,117.73,148.12,117.8Zm-.44,36.31c7,.09,12.32-4.81,12.48-11.45A12.19,12.19,0,0,0,147.9,130.3a12.36,12.36,0,0,0-12.31,11.89A12,12,0,0,0,147.68,154.11Z"/><path d="M63,142.08c.07-13.58,11.1-24.29,25-24.28,14.13,0,25.13,10.88,25,24.78C112.94,156,101.71,167,88,167A24.78,24.78,0,0,1,63,142.08Zm25,12c6.93,0,12.23-5,12.3-11.64a12.29,12.29,0,0,0-24.57-.1C75.69,148.94,81.06,154.08,87.92,154.11Z"/><path d="M92.94,92.92a24.94,24.94,0,0,1,25.18-24.85C131.77,68.24,143,79.35,143,92.78a25,25,0,0,1-50.06.14Zm12.73-.29a12.28,12.28,0,0,0,24.55.22A11.91,11.91,0,0,0,118.05,81C111.18,81,105.78,86,105.67,92.63Z"/><path d="M34.82,92.81A24.8,24.8,0,0,1,59.57,68.07C73.18,67.92,85,79.51,85,92.91c0,13.57-11.62,24.7-25.52,24.54S34.8,106.55,34.82,92.81ZM59.9,81c-6.67,0-12.43,5.24-12.62,11.6s5.85,12.32,12.57,12.28A12.2,12.2,0,0,0,72,92.89,11.87,11.87,0,0,0,59.9,81Z"/><path d="M200.18,93.2a24.5,24.5,0,0,1-25,24.25c-13.95-.1-25.45-11.52-25.12-24.93S161.84,68,175.32,68.08A24.78,24.78,0,0,1,200.18,93.2ZM175.1,81A11.86,11.86,0,0,0,163,92.89a12.23,12.23,0,0,0,12.15,12c6.67.08,12.72-5.85,12.54-12.28S181.79,81,175.1,81Z"/><path d="M90,73.08A20.32,20.32,0,0,1,70,52.54c.13-11.1,9.53-20.58,20.29-20.46,11,.13,19.81,9.39,19.78,20.77A19.86,19.86,0,0,1,90,73.08ZM90.27,45C86.16,45,83,48.31,83,52.71s2.88,7.46,6.83,7.66A7.69,7.69,0,0,0,90.27,45Z"/><path d="M167.33,52.75c0,11.6-8.7,20.4-20.07,20.33a20.09,20.09,0,0,1-19.78-20.24c-.09-11.31,9-20.72,20-20.76S167.35,41.24,167.33,52.75ZM147.21,45a7.68,7.68,0,0,0-7.09,8.05c.19,3.95,3.61,7.37,7.36,7.37s7.49-3.85,7.39-7.88A7.68,7.68,0,0,0,147.21,45Z"/></g></g></svg>